<?xml version="1.0" standalone="no"?>
<!DOCTYPE svg PUBLIC "-//W3C//DTD SVG 20010904//EN"
 "http://www.w3.org/TR/2001/REC-SVG-20010904/DTD/svg10.dtd">
<svg version="1.0" xmlns="http://www.w3.org/2000/svg"
 width="721.000000pt" height="240.000000pt" viewBox="0 0 721.000000 240.000000"
 preserveAspectRatio="xMidYMid meet">
<metadata>
Created by potrace 1.16, written by Peter Selinger 2001-2019
</metadata>
<g transform="translate(0.000000,240.000000) scale(0.100000,-0.100000)"
fill="#000000" stroke="none">
<path d="M5200 2097 l-35 -22 -2115 -5 -2115 -5 2108 -3 2108 -2 45 26 c24 14
44 28 44 30 0 7 -3 5 -40 -19z"/>
<path d="M823 2049 c-16 -6 -21 -13 -16 -25 4 -12 2 -15 -8 -12 -8 3 -13 10
-12 16 2 8 -5 8 -24 1 -69 -26 -157 -94 -146 -112 3 -6 1 -7 -4 -4 -14 9 -67
-52 -97 -112 -53 -104 -56 -134 -56 -603 0 -389 2 -440 18 -499 53 -192 216
-332 415 -359 52 -6 791 -10 2167 -10 l2089 0 72 -36 c300 -151 634 -150 931
3 584 300 737 1062 313 1562 -58 68 -159 158 -209 185 -29 16 -29 16 -11 1 19
-17 19 -17 -10 -11 -25 5 -27 4 -12 -5 10 -6 24 -8 32 -5 9 3 12 0 8 -9 -5
-15 54 -72 70 -67 5 1 6 -1 3 -6 -3 -5 13 -26 35 -48 42 -41 129 -156 129
-171 0 -4 -7 1 -15 11 -15 20 -13 20 -280 2 -11 -1 -26 -5 -34 -10 -10 -7 -12
-6 -6 4 6 9 2 10 -15 5 -19 -6 -22 -4 -17 9 4 10 3 15 -3 11 -5 -3 -39 12 -76
34 -242 146 -542 130 -789 -43 -45 -31 -62 -39 -61 -27 1 15 -154 16 -1934 14
-1064 -2 -2111 -6 -2327 -9 -386 -6 -391 -7 -401 -28 -17 -34 -12 4 6 56 24
68 85 147 148 193 55 39 134 75 167 75 9 0 17 6 17 14 0 8 8 16 18 19 9 2 1 4
-18 4 -19 0 -45 -3 -57 -8z m641 -528 c8 -12 176 -558 176 -571 0 -6 -29 -10
-70 -10 l-70 0 -22 75 -23 75 -82 0 -82 0 -11 -42 c-6 -24 -16 -58 -21 -75
l-11 -33 -69 0 c-62 0 -70 2 -65 18 33 103 111 360 136 447 18 61 34 113 37
118 6 10 171 9 177 -2z m4286 -169 c140 -81 254 -151 254 -157 -1 -8 -507
-305 -520 -305 -2 0 -4 137 -4 305 0 168 3 305 8 304 4 0 122 -66 262 -147z
m-3558 18 c44 -12 101 -73 118 -125 8 -23 11 -66 8 -110 -4 -59 -10 -80 -34
-115 -54 -80 -168 -110 -234 -62 l-30 23 0 -106 0 -105 -65 0 -65 0 0 208 c0
115 -3 250 -6 300 l-7 92 60 0 c57 0 61 -2 67 -26 7 -25 8 -25 26 -9 19 18 84
44 110 45 8 0 31 -5 52 -10z m468 -55 l0 -65 -34 0 c-19 0 -44 -9 -57 -19 -23
-18 -24 -27 -29 -153 l-5 -133 -67 -3 -68 -3 0 216 0 216 58 -3 c56 -3 57 -3
60 -36 l3 -32 26 31 c28 33 55 47 91 48 21 1 22 -3 22 -64z m327 53 c59 -14
127 -78 142 -133 50 -183 -84 -332 -264 -295 -104 22 -165 101 -165 212 0 77
25 135 74 174 61 50 130 63 213 42z m533 2 c43 -12 93 -61 114 -112 41 -98 5
-242 -73 -294 -50 -33 -133 -38 -174 -11 -15 9 -29 17 -32 17 -3 0 -5 -45 -5
-100 l0 -100 -65 0 -65 0 0 203 c0 111 -3 246 -7 300 l-6 97 60 0 c57 0 61 -2
67 -26 7 -25 8 -25 26 -9 19 18 84 44 110 45 8 0 31 -5 50 -10z m483 -1 c86
-24 146 -111 147 -212 0 -136 -84 -221 -220 -221 -143 0 -230 96 -218 240 12
143 147 233 291 193z m453 0 c24 -6 46 -15 49 -19 4 -6 -13 -80 -20 -88 -2 -2
-21 2 -43 9 -51 15 -92 6 -92 -21 0 -15 17 -28 70 -51 38 -17 76 -41 84 -54
58 -88 -4 -193 -123 -210 -58 -8 -160 10 -167 30 -3 7 0 31 6 53 l10 41 42
-15 c51 -18 102 -18 117 0 19 22 3 41 -54 65 -30 13 -68 35 -85 51 -25 24 -30
35 -30 77 0 105 106 164 236 132z"/>
<path d="M2048 1240 c-29 -29 -30 -34 -26 -97 3 -54 8 -69 27 -84 51 -42 118
-12 129 56 10 61 3 101 -23 129 -32 35 -69 34 -107 -4z"/>
<path d="M2873 1256 c-24 -21 -28 -32 -31 -94 -4 -68 -3 -73 26 -102 46 -46
92 -36 118 25 36 86 -3 195 -70 195 -8 0 -27 -11 -43 -24z"/>
<path d="M3379 1241 c-30 -30 -31 -35 -27 -98 5 -74 27 -103 78 -103 60 0 98
73 80 154 -10 47 -26 64 -67 72 -27 5 -37 1 -64 -25z"/>
<path d="M3897 1269 c-46 -27 -62 -140 -27 -196 33 -55 90 -53 126 2 12 19 15
42 12 91 -4 58 -8 70 -32 90 -29 26 -51 29 -79 13z"/>
</g>
</svg>
